<svg id="visual" viewBox="0 0 960 540" width="960" height="540" xmlns="http://www.w3.org/2000/svg" xmlns:xlink="http://www.w3.org/1999/xlink" version="1.1"><rect x="0" y="0" width="960" height="540" fill="#e8f0ea"></rect><path d="M412 540L447.8 517.5C483.7 495 555.3 450 590.7 405C626 360 625 315 588.3 270C551.7 225 479.3 180 483.2 135C487 90 567 45 607 22.5L647 0L960 0L960 22.5C960 45 960 90 960 135C960 180 960 225 960 270C960 315 960 360 960 405C960 450 960 495 960 517.5L960 540Z" fill="#03A65A" stroke-linecap="round" stroke-linejoin="miter"></path></svg>